<?xml version="1.0" standalone="no"?>
<!DOCTYPE svg PUBLIC "-//W3C//DTD SVG 20010904//EN"
 "http://www.w3.org/TR/2001/REC-SVG-20010904/DTD/svg10.dtd">
<svg version="1.0" xmlns="http://www.w3.org/2000/svg"
 width="235.000000pt" height="170.000000pt" viewBox="0 0 235.000000 170.000000"
 preserveAspectRatio="xMidYMid meet">

<g transform="translate(0.000000,170.000000) scale(0.100000,-0.100000)"
fill="#000000" stroke="none">
<path d="M1072 1569 c-128 -21 -259 -94 -364 -200 -144 -147 -211 -376 -163
-564 55 -218 227 -402 439 -472 69 -22 98 -26 201 -26 103 0 132 4 201 26 196
65 348 216 417 416 57 164 35 357 -58 512 -141 231 -406 352 -673 308z m108
-48 c0 -5 -6 -11 -12 -14 -7 -2 -10 -8 -6 -12 5 -5 16 2 27 13 21 25 46 28 58
10 4 -7 19 -13 33 -13 16 0 26 -6 28 -18 3 -15 -4 -17 -48 -15 -28 1 -54 6
-56 10 -3 5 -11 5 -17 1 -7 -4 -28 -9 -47 -10 -19 -1 -44 -3 -55 -5 -14 -2
-20 3 -20 17 0 26 33 32 51 8 14 -17 15 -17 9 4 -5 18 -3 22 9 17 9 -3 16 -1
16 5 0 6 7 11 15 11 8 0 15 -4 15 -9z m-150 -51 c0 -11 -6 -21 -12 -22 -7 0
-18 -2 -24 -2 -6 -1 -19 -7 -28 -15 -19 -16 -46 -8 -46 13 0 15 37 32 47 22 3
-3 12 1 20 9 21 21 43 18 43 -5z m346 12 c6 -4 16 -16 23 -27 9 -15 11 -16 7
-2 -4 11 0 17 10 17 9 0 18 -9 21 -20 4 -15 9 -18 18 -10 9 7 19 5 35 -8 19
-16 21 -22 11 -40 -13 -24 -36 -20 -51 8 -6 12 -17 16 -30 13 -12 -3 -22 1
-26 10 -3 9 -12 13 -21 10 -19 -7 -44 23 -36 43 6 15 22 18 39 6z m-492 -48
c21 -8 20 -43 -1 -51 -10 -3 -26 -13 -35 -21 -18 -15 -48 -10 -48 7 0 9 57 71
65 71 2 0 10 -3 19 -6z m385 -14 c96 -16 182 -60 257 -132 106 -102 154 -210
154 -348 -1 -132 -41 -229 -138 -332 -151 -160 -376 -200 -576 -104 -124 60
-218 169 -258 299 -27 89 -22 224 11 309 60 156 212 279 381 308 65 11 97 11
169 0z m315 -51 c-1 -9 6 -16 15 -15 9 1 17 -8 19 -21 2 -14 8 -20 18 -16 21
8 29 -26 11 -45 -15 -15 -19 -13 -46 14 -17 16 -31 35 -31 42 0 6 -6 12 -14
12 -19 0 -39 27 -31 40 11 17 60 8 59 -11z m-777 -25 c4 -11 -8 -29 -35 -55
-23 -21 -37 -41 -31 -45 13 -8 -8 -34 -28 -34 -8 0 -11 -4 -8 -10 3 -5 2 -10
-4 -10 -5 0 -11 6 -14 13 -2 6 -8 8 -13 4 -5 -5 -1 -15 10 -23 20 -14 20 -14
0 -28 -13 -10 -23 -11 -31 -4 -18 15 -16 21 11 51 14 15 20 29 15 33 -12 7 8
34 26 34 6 0 11 10 11 23 -1 17 4 22 22 21 12 0 22 4 22 11 0 13 20 35 32 35
5 0 11 -7 15 -16z m882 -113 c6 -10 7 -22 3 -26 -4 -4 2 -5 13 -3 15 2 20 -3
21 -22 0 -14 5 -34 11 -45 9 -16 8 -24 -5 -39 -13 -15 -14 -18 -2 -14 18 6 51
-22 42 -36 -3 -6 -6 -27 -7 -46 0 -42 -30 -51 -31 -10 0 14 -4 31 -8 38 -4 7
-5 19 -2 27 3 8 1 15 -4 15 -7 0 -18 32 -23 67 0 5 -7 14 -14 22 -8 7 -12 20
-8 28 3 11 1 13 -10 9 -11 -4 -15 1 -15 18 0 39 22 49 39 17z m-1029 -136 c0
-14 -5 -25 -11 -25 -6 0 -8 -9 -4 -20 3 -11 3 -25 -2 -32 -4 -7 -8 -29 -8 -48
0 -28 -4 -35 -19 -35 -22 0 -30 30 -15 57 7 14 7 24 -1 34 -17 20 -5 45 17 37
14 -4 15 -3 7 6 -17 18 -5 51 17 51 14 0 19 -7 19 -25z m1090 -270 c0 -8 -6
-15 -14 -15 -17 0 -28 14 -19 24 12 12 33 6 33 -9z m-1100 -24 c0 -14 -18 -23
-30 -16 -6 4 -8 11 -5 16 8 12 35 12 35 0z m96 -143 c8 -12 -21 -38 -43 -38
-13 0 -18 32 -6 43 10 11 41 8 49 -5z m932 -7 c11 -7 10 -9 -3 -15 -9 -3 -13
-10 -10 -16 3 -5 2 -10 -4 -10 -9 0 -31 31 -31 44 0 9 33 7 48 -3z m-922 -42
c3 -6 0 -18 -9 -26 -12 -12 -18 -13 -35 -2 -19 12 -19 14 -4 26 21 15 39 16
48 2z m840 -14 c-3 -8 2 -19 12 -24 27 -15 8 -23 -21 -8 -24 13 -25 15 -9 30
20 21 26 21 18 2z m-797 -62 c-12 -15 -12 -16 6 -9 16 6 18 5 8 -5 -10 -10
-16 -10 -24 -2 -12 12 -4 33 13 33 6 0 5 -7 -3 -17z m749 -13 c7 -11 9 -20 4
-20 -10 0 -32 22 -32 32 0 15 15 8 28 -12z m-62 -65 c-17 -9 -22 -8 -29 8 -11
29 2 39 27 20 l23 -18 -21 -10z m-601 25 c-3 -6 1 -7 10 -4 11 5 18 0 22 -15
4 -15 9 -18 17 -12 6 6 16 7 21 3 13 -9 19 -42 8 -42 -17 0 -63 37 -56 45 5 4
2 5 -4 1 -16 -9 -56 12 -48 25 4 5 13 9 21 9 8 0 12 -4 9 -10z m519 -36 c10
-26 7 -36 -9 -30 -8 3 -15 1 -15 -5 0 -17 -17 -1 -23 21 -4 17 -2 20 15 14 14
-4 18 -2 14 5 -4 6 -3 11 2 11 6 0 13 -7 16 -16z m-321 -37 c4 3 7 0 7 -8 0
-17 -20 -49 -20 -32 0 6 -8 9 -19 6 -10 -3 -22 0 -26 7 -9 15 26 41 41 29 6
-5 14 -6 17 -2z m147 -16 c0 -14 -18 -23 -30 -16 -6 4 -8 11 -5 16 8 12 35 12
35 0z"/>
<path d="M1350 1470 c0 -6 7 -10 15 -10 8 0 15 2 15 4 0 2 -7 6 -15 10 -8 3
-15 1 -15 -4z"/>
<path d="M1475 1400 c-3 -6 1 -7 9 -4 18 7 21 14 7 14 -6 0 -13 -4 -16 -10z"/>
<path d="M867 1424 c7 -3 9 -13 6 -22 -5 -13 -3 -14 7 -5 14 13 5 33 -13 32
-9 0 -9 -2 0 -5z"/>
<path d="M1130 1355 c0 -35 -4 -47 -21 -55 -11 -7 -22 -10 -23 -8 -1 2 -13 20
-25 41 -25 42 -30 43 -71 22 -35 -18 -34 -15 -15 -63 15 -34 15 -38 -1 -49
-23 -17 -25 -17 -63 11 -36 27 -56 23 -80 -16 -10 -16 -8 -24 14 -50 45 -53
21 -75 -57 -54 -24 7 -29 4 -41 -26 -17 -41 -15 -45 34 -65 59 -23 51 -56 -18
-68 -42 -7 -43 -8 -43 -45 0 -37 1 -38 48 -46 64 -12 69 -41 13 -73 l-41 -22
20 -39 20 -39 39 16 c70 28 92 -1 44 -57 l-26 -32 31 -31 32 -31 35 34 c29 28
39 33 53 23 9 -6 16 -15 15 -20 -16 -85 -17 -81 17 -98 18 -9 33 -15 35 -13 1
2 12 22 24 46 17 34 27 43 44 40 18 -2 23 -12 30 -55 8 -47 11 -52 30 -49 12
3 30 5 40 5 14 1 17 10 17 51 0 28 4 50 9 50 5 0 16 2 23 5 9 4 23 -10 38 -37
13 -24 24 -44 26 -46 2 -3 62 25 72 33 1 1 -5 21 -13 45 -18 52 -19 47 5 60
17 9 27 6 58 -20 l37 -31 28 32 29 31 -32 33 c-42 43 -38 70 10 70 19 -1 45
-4 56 -8 18 -6 24 -2 33 24 17 49 14 56 -31 72 -24 7 -42 17 -40 20 1 4 2 16
2 27 0 15 7 20 28 20 62 0 73 9 70 54 l-3 41 -50 3 c-44 3 -64 13 -65 33 0 3
18 14 40 24 23 10 43 22 46 26 7 12 -29 80 -40 76 -79 -29 -86 -31 -98 -19 -9
9 -9 17 -3 26 6 7 19 25 29 40 l19 27 -29 30 -30 29 -34 -30 c-19 -16 -43 -29
-54 -30 -16 0 -18 5 -13 33 4 17 9 41 12 53 5 15 0 23 -20 32 -32 15 -65 16
-65 2 0 -6 -7 -26 -15 -46 -13 -31 -17 -34 -35 -24 -11 6 -20 21 -20 33 0 54
-10 67 -51 67 l-39 0 0 -45z m73 -79 c10 -25 17 -53 15 -64 -2 -14 38 -54 150
-151 138 -121 175 -156 140 -135 -32 20 -308 267 -303 272 3 3 -2 14 -12 24
-9 10 -11 18 -5 18 6 0 13 -6 15 -12 4 -8 6 -7 6 3 1 9 -6 22 -14 29 -8 7 -16
22 -16 34 -2 19 -2 18 -6 -3 -3 -13 -11 -31 -19 -38 -16 -17 -18 -33 -4 -33 6
0 10 8 11 18 0 11 2 12 6 4 5 -14 -14 -42 -28 -42 -15 0 -10 47 6 60 8 7 15
23 15 36 0 39 24 27 43 -20z m-13 -89 c0 -4 -7 -7 -15 -5 -8 2 -86 -64 -172
-146 l-158 -149 154 156 c96 97 161 155 173 154 10 -1 18 -5 18 -10z m-12
-176 c3 -44 -13 -91 -31 -91 -5 0 -31 -11 -59 -25 -60 -30 -61 -30 -49 -6 7
13 7 34 -1 69 l-12 50 -18 -40 c-22 -49 -22 -67 0 -93 24 -28 93 -82 125 -96
24 -11 25 -13 10 -35 -15 -23 -15 -24 16 -24 21 0 31 -5 31 -15 0 -8 -2 -15
-4 -15 -2 0 -20 7 -39 15 -43 18 -102 19 -163 4 -25 -6 -47 -9 -51 -6 -10 11
49 291 65 310 8 9 25 17 36 18 12 0 37 6 56 14 19 7 46 12 60 12 22 -2 25 -7
28 -46z m132 35 c66 -7 66 -7 104 -167 20 -83 33 -155 30 -161 -4 -6 -37 -7
-89 -3 -66 6 -88 4 -113 -9 -38 -20 -42 -20 -42 -1 0 8 9 15 20 15 23 0 24 4
10 30 -9 16 -5 22 21 35 17 9 37 14 45 11 7 -3 16 -1 19 5 4 5 11 7 16 3 18
-11 58 6 64 27 8 24 -12 51 -34 47 -19 -3 -139 49 -158 68 -7 7 -13 36 -13 65
l0 52 48 -8 c26 -3 58 -8 72 -9z m-280 -121 c0 -35 -13 -47 -23 -21 -7 18 3
56 14 56 5 0 9 -16 9 -35z m253 -32 c45 -14 7 -23 -95 -23 -101 1 -111 2 -94
15 11 8 36 17 55 21 20 3 41 7 46 8 6 2 24 -1 40 -6 17 -5 38 -12 48 -15z
m102 -32 c8 -13 -23 -41 -46 -41 -27 0 -23 17 9 34 33 18 30 18 37 7z m-89
-30 c-24 -27 -78 -51 -113 -51 -31 0 -104 38 -111 58 -3 9 25 12 119 12 120 0
122 0 105 -19z m-86 -65 c0 -2 3 -11 6 -20 5 -13 -1 -16 -25 -16 -33 0 -34 1
-25 24 5 14 44 24 44 12z m167 -72 c-3 -3 -12 -4 -19 -1 -8 3 -5 6 6 6 11 1
17 -2 13 -5z"/>
<path d="M1580 1330 c0 -5 7 -10 16 -10 8 0 12 5 9 10 -3 6 -10 10 -16 10 -5
0 -9 -4 -9 -10z"/>
<path d="M692 1249 c2 -6 8 -10 13 -10 5 0 11 4 13 10 2 6 -4 11 -13 11 -9 0
-15 -5 -13 -11z"/>
<path d="M660 1170 c0 -5 5 -10 10 -10 6 0 10 5 10 10 0 6 -4 10 -10 10 -5 0
-10 -4 -10 -10z"/>
<path d="M1660 1219 c0 -5 5 -7 10 -4 6 3 10 8 10 11 0 2 -4 4 -10 4 -5 0 -10
-5 -10 -11z"/>
<path d="M1697 1175 c3 -8 9 -12 14 -9 12 7 11 11 -5 17 -10 4 -13 1 -9 -8z"/>
<path d="M1736 1051 c-4 -5 -2 -12 3 -15 5 -4 12 -2 15 3 4 5 2 12 -3 15 -5 4
-12 2 -15 -3z"/>
<path d="M1743 991 c0 -11 5 -17 9 -15 11 7 10 34 -1 34 -6 0 -9 -9 -8 -19z"/>
<path d="M610 954 c0 -8 5 -12 10 -9 6 4 8 11 5 16 -9 14 -15 11 -15 -7z"/>
<path d="M700 650 c0 -5 5 -10 10 -10 6 0 10 5 10 10 0 6 -4 10 -10 10 -5 0
-10 -4 -10 -10z"/>
</g>
</svg>
